<svg id="Layer_1" data-name="Layer 1" xmlns="http://www.w3.org/2000/svg" viewBox="0 0 558.04 1334.1"><defs><style>.cls-1{fill:#379ecb;}.cls-2{fill:#2998c6;}.cls-3{fill:#1988bf;}.cls-4{fill:#9cd5f0;}.cls-5{fill:#1a80b1;}.cls-6{fill:#136e9a;}.cls-7{fill:#45aad3;}.cls-8{fill:#c9e6f7;}.cls-9{fill:#399abe;}.cls-10{fill:#27a7c4;}.cls-11{fill:#64c3dd;}.cls-12{fill:#59c0d8;}.cls-13{fill:#3697ba;}.cls-14{fill:#e7f2fa;}.cls-15{fill:#23779c;}.cls-16{fill:#1b6687;}.cls-17{fill:#2980a3;}.cls-18{fill:#358faa;}.cls-19{fill:#176787;}.cls-20{fill:#36a1b2;}.cls-21{fill:#135468;}.cls-22{fill:#5baabc;}.cls-23{fill:#499fad;}.cls-24{fill:#32b2b2;}</style></defs><title>iceberg</title><polygon class="cls-1" points="288.6 414.99 57.48 409 289.09 0 288.6 414.99"/><polygon class="cls-2" points="132 538.23 0 538.23 65.14 295.63 174.81 200.73 132 538.23"/><polygon class="cls-3" points="200.54 538.23 288.88 538.23 289.12 245.19 217.28 287.06 200.54 538.23"/><polygon class="cls-4" points="200.54 538.23 132 538.23 173.97 202.3 217.28 287.06 200.54 538.23"/><polyline class="cls-5" points="38.98 538.23 105.39 341.82 75.99 538.23"/><polygon class="cls-6" points="200.54 538.23 204.56 832.36 277.23 986.02 288.88 538.23 200.54 538.23"/><polyline class="cls-7" points="334.02 331.82 411.93 227.42 548.82 366.25 430.13 81.09 356.47 127.73 334.02 331.82"/><polygon class="cls-8" points="334.02 331.82 401.74 538.23 288.88 572.88 289.12 245.19 334.02 331.82"/><polygon class="cls-9" points="132 538.23 119.27 730.77 204.56 832.36 200.54 538.23 132 538.23"/><polygon class="cls-4" points="411.93 227.42 446.51 538.23 558.04 538.23 548.82 366.25 411.93 227.42"/><polygon class="cls-10" points="411.93 227.42 334.02 331.82 401.74 538.23 446.51 538.23 411.93 227.42"/><polygon class="cls-11" points="558.04 538.23 555.37 579.11 444.7 693.91 446.51 538.23 558.04 538.23"/><polygon class="cls-12" points="401.74 538.23 277.23 986.02 288.88 538.23 401.74 538.23"/><polygon class="cls-13" points="444.7 693.91 277.23 986.02 401.74 538.23 446.51 538.23 444.7 693.91"/><polygon class="cls-14" points="356.23 127.73 333.78 331.82 288.88 245.19 289.09 0 356.23 127.73"/><polygon class="cls-15" points="75.99 538.23 132 538.23 123.84 661.7 93.66 589.59 75.99 538.23"/><polygon class="cls-14" points="430.13 81.09 411.93 227.42 548.82 366.25 430.13 81.09"/><polygon class="cls-16" points="0 538.23 40.36 538.23 123.84 661.7 31.61 596.54 0 538.23"/><polygon class="cls-17" points="38.98 538.23 123.84 661.7 75.99 538.23 38.98 538.23"/><polygon class="cls-11" points="444.7 693.91 442.8 838.51 277.23 1158.77 277.23 986.02 444.7 693.91"/><polyline class="cls-18" points="204.56 832.36 118.08 838.51 119.27 730.77 204.56 832.36"/><polygon class="cls-19" points="204.56 832.36 118.08 838.51 277.23 1158.77 277.23 986.02 204.56 832.36"/><polygon class="cls-20" points="555.37 579.11 442.8 838.51 444.7 693.91 555.37 579.11"/><polygon class="cls-20" points="31.61 596.54 118.08 838.51 123.84 661 31.61 596.54"/><polygon class="cls-21" points="211.38 1026.25 188.44 1143.56 277.23 1334.1 277.23 1158.77 211.38 1026.25"/><polygon class="cls-22" points="343.08 1026.25 366.02 1143.56 277.23 1334.1 277.23 1158.77 343.08 1026.25"/><polygon class="cls-23" points="390.27 940.13 366.02 1143.56 343.08 1026.25 390.27 940.13"/><polygon class="cls-22" points="118.08 838.51 188.44 1143.56 211.38 1026.25 118.08 838.51"/><polygon class="cls-24" points="442.8 838.51 366.02 1143.56 390.27 940.13 442.8 838.51"/></svg>