<svg id="Layer_1" data-name="Layer 1" xmlns="http://www.w3.org/2000/svg" viewBox="0 0 536 166.15"><defs><style>.cls-1{fill:#fff;}</style></defs><title>weights</title><path class="cls-1" d="M125.12,489.74h41.24c10,0,18.12,10.37,18.12,23.17V632.73c0,12.79-8.11,23.17-18.12,23.17H125.12c-10,0-18.12-10.37-18.12-23.17V512.91C107,500.12,115.11,489.74,125.12,489.74Z" transform="translate(-107 -489.74)"/><path class="cls-1" d="M200.21,489.74h41.24c10,0,18.12,10.37,18.12,23.17V632.73c0,12.79-8.11,23.17-18.12,23.17H200.21c-10,0-18.12-10.37-18.12-23.17V512.91C182.09,500.12,190.2,489.74,200.21,489.74Z" transform="translate(-107 -489.74)"/><path class="cls-1" d="M508.55,489.74h41.24c10,0,18.12,10.37,18.12,23.17V632.73c0,12.79-8.11,23.17-18.12,23.17H508.55c-10,0-18.12-10.37-18.12-23.17V512.91C490.43,500.12,498.54,489.74,508.55,489.74Z" transform="translate(-107 -489.74)"/><path class="cls-1" d="M583.64,489.74h41.24c10,0,18.12,10.37,18.12,23.17V632.73c0,12.79-8.11,23.17-18.12,23.17H583.64c-10,0-18.12-10.37-18.12-23.17V512.91C565.52,500.12,573.63,489.74,583.64,489.74Z" transform="translate(-107 -489.74)"/><rect class="cls-1" x="149.38" y="72.69" width="236.45" height="19.17"/></svg>